<svg width="25" height="29" viewBox="0 0 25 29" fill="white" xmlns="http://www.w3.org/2000/svg">
    <g>
      <path fill-rule="evenodd" clip-rule="evenodd"
        d="M9.20001 2.1551C7.55771 3.01904 6.21407 3.75011 6.21436 3.77985C6.21509 3.85659 10.1559 5.87206 10.2958 5.86715C10.3594 5.865 10.821 5.65043 11.3215 5.3904L12.2315 4.91769L13.2255 5.43362L14.2193 5.94964L15.847 5.21106C18.2995 4.09813 18.5542 3.97617 18.5143 3.9352C18.4613 3.88083 17.5816 3.4036 15.195 2.13474C14.0416 1.52149 12.9221 0.920214 12.7072 0.798546C12.4923 0.676878 12.2872 0.579004 12.2513 0.580899C12.2155 0.582793 10.8423 1.29119 9.20001 2.1551ZM1.99688 5.9219L0.287264 6.81368V10.7275C0.287264 12.8802 0.309713 14.6414 0.33725 14.6414C0.364691 14.6414 1.20583 14.2732 2.2064 13.8231L4.02562 13.0049V8.8794L4.91461 9.36851C5.59966 9.74507 6.28511 10.1209 6.97098 10.4959L8.13833 11.1342L8.65777 10.897C8.98354 10.748 9.30866 10.5975 9.63312 10.4456C9.88384 10.3277 10.4993 10.0478 11.0008 9.8234C11.5023 9.59894 11.9665 9.37323 12.0323 9.32179C12.1197 9.25346 11.0535 8.65845 8.08863 7.12092C5.85375 5.96194 3.9535 5.01737 3.86587 5.02189C3.77824 5.02642 2.93719 5.43137 1.99688 5.9219ZM18.8224 6.17233C17.6581 6.70315 16.7046 7.15868 16.7035 7.18466C16.7025 7.2106 17.3371 7.59166 18.1138 8.03132C18.8905 8.47108 19.526 8.85439 19.526 8.88325C19.526 8.91206 18.8387 9.24835 17.9988 9.63073C17.1587 10.013 15.0355 10.9813 13.2803 11.7826L7.39923 14.4671C5.91985 15.1425 4.58637 15.7512 4.43593 15.82C1.41423 17.2014 0.583679 17.5847 0.469622 17.6505C0.354929 17.7168 0.32895 18.1016 0.308536 20.0332L0.28418 22.3369L1.813 23.1236L3.34178 23.9102L5.46169 22.944C6.62766 22.4127 7.58159 21.9501 7.58159 21.916C7.58159 21.8821 7.36613 21.7403 7.10291 21.6009C6.83956 21.4615 6.29595 21.1528 5.89477 20.9149C5.49361 20.6769 5.0936 20.4586 5.00577 20.4296C4.91798 20.4007 4.84742 20.3502 4.84885 20.3173C4.85032 20.2844 5.78382 19.8366 6.92319 19.3221C9.13619 18.3229 10.8298 17.5528 14.4656 15.8924C16.0914 15.1501 17.7174 14.4082 19.3437 13.6668C20.7729 13.0153 22.4346 12.2545 23.0364 11.976L24.1306 11.4697L24.1549 9.13972L24.1793 6.80983L22.6287 6.00609C21.7759 5.56409 21.0469 5.20351 21.0087 5.20483C20.9705 5.20605 19.9867 5.64138 18.8224 6.17233ZM23.7151 14.578C23.4866 14.6908 23.0353 14.9018 22.7122 15.047C22.3891 15.1921 21.7759 15.4715 21.3496 15.668L20.5746 16.0249L20.5569 18.0705C20.5471 19.1955 20.5061 20.1109 20.4657 20.105C20.374 20.0912 18.9214 19.3389 17.4613 18.5488C16.4074 17.9786 16.3412 17.9559 16.0936 18.0798C15.9504 18.1514 15.0947 18.539 14.1921 18.9412C13.2894 19.3433 12.5214 19.6986 12.4853 19.7307C12.4493 19.7629 14.266 20.7572 16.5226 21.9406L20.6254 24.0921L22.378 23.1765C23.3419 22.673 24.1615 22.2138 24.1992 22.156C24.2842 22.0261 24.2769 14.3553 24.1918 14.3657C24.1582 14.3697 23.9436 14.4653 23.7151 14.578ZM14.0097 23.5816C13.7057 23.7136 13.4018 23.8458 13.0979 23.9782C12.1804 24.3791 12.3602 24.3923 11.2686 23.8436C10.5415 23.4781 10.2281 23.3653 10.0921 23.4201C9.99008 23.4611 9.11193 23.8601 8.14052 24.3066C7.16917 24.7532 6.34072 25.1186 6.29951 25.1186C5.89197 25.1186 6.56951 25.5274 9.18398 26.8592L12.2501 28.421L13.5402 27.7778C14.2498 27.424 15.6809 26.7156 16.7206 26.2036C17.7602 25.6914 18.598 25.2591 18.5823 25.2428C18.5665 25.2266 17.6954 24.7748 16.6464 24.239L14.7391 23.2648L14.0097 23.5816Z"
        fill="currentColor" />
    </g>
  </svg>